<svg width="348" height="55" viewBox="0 0 348 55" fill="none" xmlns="http://www.w3.org/2000/svg">
<path d="M71.144 3.744L57.104 54H45.224L35.792 18.216L25.928 54L14.12 54.072L0.584 3.744H11.384L20.24 42.768L30.464 3.744H41.696L51.344 42.552L60.272 3.744H71.144ZM75.1338 33.912C75.1338 29.88 75.9258 26.304 77.5098 23.184C79.1418 20.064 81.3258 17.664 84.0618 15.984C86.8458 14.304 89.9418 13.464 93.3498 13.464C96.3258 13.464 98.9178 14.064 101.126 15.264C103.382 16.464 105.182 17.976 106.526 19.8V14.112H116.678V54H106.526V48.168C105.23 50.04 103.43 51.6 101.126 52.848C98.8698 54.048 96.2538 54.648 93.2778 54.648C89.9178 54.648 86.8458 53.784 84.0618 52.056C81.3258 50.328 79.1418 47.904 77.5098 44.784C75.9258 41.616 75.1338 37.992 75.1338 33.912ZM106.526 34.056C106.526 31.608 106.046 29.52 105.086 27.792C104.126 26.016 102.83 24.672 101.198 23.76C99.5658 22.8 97.8138 22.32 95.9418 22.32C94.0698 22.32 92.3418 22.776 90.7578 23.688C89.1738 24.6 87.8778 25.944 86.8698 27.72C85.9098 29.448 85.4298 31.512 85.4298 33.912C85.4298 36.312 85.9098 38.424 86.8698 40.248C87.8778 42.024 89.1738 43.392 90.7578 44.352C92.3898 45.312 94.1178 45.792 95.9418 45.792C97.8138 45.792 99.5658 45.336 101.198 44.424C102.83 43.464 104.126 42.12 105.086 40.392C106.046 38.616 106.526 36.504 106.526 34.056ZM138.259 22.392V41.688C138.259 43.032 138.571 44.016 139.195 44.64C139.867 45.216 140.971 45.504 142.507 45.504H147.187V54H140.851C132.355 54 128.107 49.872 128.107 41.616V22.392H123.355V14.112H128.107V4.248H138.259V14.112H147.187V22.392H138.259ZM151.845 34.056C151.845 29.928 152.685 26.328 154.365 23.256C156.045 20.136 158.373 17.736 161.349 16.056C164.325 14.328 167.733 13.464 171.573 13.464C176.517 13.464 180.597 14.712 183.813 17.208C187.077 19.656 189.261 23.112 190.365 27.576H179.493C178.917 25.848 177.933 24.504 176.541 23.544C175.197 22.536 173.517 22.032 171.501 22.032C168.621 22.032 166.341 23.088 164.661 25.2C162.981 27.264 162.141 30.216 162.141 34.056C162.141 37.848 162.981 40.8 164.661 42.912C166.341 44.976 168.621 46.008 171.501 46.008C175.581 46.008 178.245 44.184 179.493 40.536H190.365C189.261 44.856 187.077 48.288 183.813 50.832C180.549 53.376 176.469 54.648 171.573 54.648C167.733 54.648 164.325 53.808 161.349 52.128C158.373 50.4 156.045 48 154.365 44.928C152.685 41.808 151.845 38.184 151.845 34.056ZM220.213 13.536C223.237 13.536 225.925 14.208 228.277 15.552C230.629 16.848 232.453 18.792 233.749 21.384C235.093 23.928 235.765 27 235.765 30.6V54H225.685V31.968C225.685 28.8 224.893 26.376 223.309 24.696C221.725 22.968 219.565 22.104 216.829 22.104C214.045 22.104 211.837 22.968 210.205 24.696C208.621 26.376 207.829 28.8 207.829 31.968V54H197.749V0.719999H207.829V19.08C209.125 17.352 210.853 16.008 213.013 15.048C215.173 14.04 217.573 13.536 220.213 13.536Z" fill="#BEC2C6"/>
<path d="M300.143 3.744V54H290.063V21.312L276.599 54H268.967L255.431 21.312V54H245.351V3.744H256.799L272.783 41.112L288.767 3.744H300.143ZM347.189 33.192C347.189 34.632 347.093 35.928 346.901 37.08H317.741C317.981 39.96 318.989 42.216 320.765 43.848C322.541 45.48 324.725 46.296 327.317 46.296C331.061 46.296 333.725 44.688 335.309 41.472H346.181C345.029 45.312 342.821 48.48 339.557 50.976C336.293 53.424 332.285 54.648 327.533 54.648C323.693 54.648 320.237 53.808 317.165 52.128C314.141 50.4 311.765 47.976 310.037 44.856C308.357 41.736 307.517 38.136 307.517 34.056C307.517 29.928 308.357 26.304 310.037 23.184C311.717 20.064 314.069 17.664 317.093 15.984C320.117 14.304 323.597 13.464 327.533 13.464C331.325 13.464 334.709 14.28 337.685 15.912C340.709 17.544 343.037 19.872 344.669 22.896C346.349 25.872 347.189 29.304 347.189 33.192ZM336.749 30.312C336.701 27.72 335.765 25.656 333.941 24.12C332.117 22.536 329.885 21.744 327.245 21.744C324.749 21.744 322.637 22.512 320.909 24.048C319.229 25.536 318.197 27.624 317.813 30.312H336.749Z" fill="#FAE800"/>
</svg>
